Coordinates
version=1
nRows=15
nColumns=63
inDegrees=yes

Units are S.I. units (second, meters, Newtons, ...)
If the header above contains a line with 'inDegrees', this indicates whether rotational values are in degrees (yes) or radians (no).

endheader
time	pelvis_tilt	pelvis_list	pelvis_rotation	pelvis_tx	pelvis_ty	pelvis_tz	hip_flexion_r	hip_adduction_r	hip_rotation_r	knee_angle_r	knee_angle_r_beta	ankle_angle_r	subtalar_angle_r	mtp_angle_r	hip_flexion_l	hip_adduction_l	hip_rotation_l	knee_angle_l	knee_angle_l_beta	ankle_angle_l	subtalar_angle_l	mtp_angle_l	L5_S1_Flex_Ext	L5_S1_Lat_Bending	L5_S1_axial_rotation	L4_L5_Flex_Ext	L4_L5_Lat_Bending	L4_L5_axial_rotation	L3_L4_Flex_Ext	L3_L4_Lat_Bending	L3_L4_axial_rotation	L2_L3_Flex_Ext	L2_L3_Lat_Bending	L2_L3_axial_rotation	L1_L2_Flex_Ext	L1_L2_Lat_Bending	L1_L2_axial_rotation	L1_T12_Flex_Ext	L1_T12_Lat_Bending	L1_T12_axial_rotation	Abs_r3	Abs_r2	Abs_r1	Abs_t1	Abs_t2	neck_flexion	neck_bending	neck_rotation	arm_flex_r	arm_add_r	arm_rot_r	elbow_flex_r	pro_sup_r	wrist_flex_r	wrist_dev_r	arm_flex_l	arm_add_l	arm_rot_l	elbow_flex_l	pro_sup_l	wrist_flex_l	wrist_dev_l
4.616667	4.370101	-10.188034	95.112201	0.153521	0.966987	0.313572	-0.422291	1.133606	4.041645	1.635967	0.028553	21.206544	-2.345345	0.000000	1.923451	-4.475322	-6.741980	2.752595	0.048042	24.514356	13.976926	0.000000	0.212893	0.950344	0.404093	0.395363	1.263958	0.429348	0.349761	2.310667	0.429348	0.243315	2.310667	0.353581	0.197692	1.937942	0.328325	0.121647	1.472083	0.303069	1.520670	10.750485	2.247442	0.000000	0.000000	28.227988	-10.781967	-3.403678	0.384548	-20.815685	30.951775	27.060733	80.474769	-3.181259	1.104574	17.845417	-7.877106	116.397498	19.034581	37.169655	-1.459068	-7.561345
4.633333	4.506310	-10.082499	95.363776	0.153503	0.966924	0.313140	-0.626512	1.335227	4.262337	1.557627	0.027186	20.909589	-3.178034	0.000000	1.820625	-4.637664	-6.526060	2.722965	0.047525	24.646678	14.055071	0.000000	0.216248	0.958159	0.360733	0.401595	1.274351	0.383279	0.355274	2.329667	0.383279	0.247150	2.329667	0.315641	0.200808	1.953877	0.293096	0.123564	1.484188	0.270550	1.544639	10.838881	2.006289	0.000000	0.000000	28.216792	-10.725772	-3.534727	0.275249	-20.906802	31.332392	27.052720	80.439982	-3.325285	0.814861	17.717443	-7.944037	115.645665	19.084535	38.464637	-1.689300	-7.397506
4.650000	4.603460	-9.979399	95.555966	0.153554	0.966874	0.312835	-0.808732	1.491373	4.430773	1.505052	0.026268	20.641633	-3.851791	0.000000	1.708537	-4.764433	-6.309764	2.672783	0.046649	24.721572	14.077812	0.000000	0.217395	0.962167	0.317655	0.403724	1.279682	0.337509	0.357158	2.339412	0.337509	0.248460	2.339412	0.277948	0.201873	1.962050	0.258095	0.124219	1.490396	0.238241	1.552828	10.884221	1.766702	0.000000	0.000000	28.204527	-10.653184	-3.619465	0.268351	-20.992154	31.907756	26.998853	80.346706	-3.522752	0.488077	17.652433	-8.015786	115.265912	19.118695	39.215937	-1.888095	-7.337512
4.666667	4.652819	-9.891182	95.703011	0.153675	0.966811	0.312646	-0.964201	1.595037	4.697079	1.462807	0.025531	20.357424	-4.603070	0.000000	1.600973	-4.845888	-6.058754	2.601984	0.045413	24.737915	14.018543	0.000000	0.218267	0.960542	0.271973	0.405344	1.277521	0.288971	0.358591	2.335462	0.288971	0.249458	2.335462	0.237976	0.202683	1.958738	0.220978	0.124718	1.487880	0.203979	1.559062	10.865846	1.512630	0.000000	0.000000	28.191800	-10.566699	-3.695313	0.334477	-21.041284	32.484501	26.913752	80.389626	-3.730067	0.194049	17.550099	-8.151866	114.565941	19.190832	40.176172	-2.075731	-7.214760
4.683333	4.655498	-9.817698	95.790639	0.153869	0.966738	0.312566	-1.092614	1.644385	5.086115	1.429204	0.024944	20.053595	-5.440636	0.000000	1.487356	-4.878794	-5.694560	2.497690	0.043593	24.683356	13.752072	0.000000	0.218646	0.953801	0.224007	0.406048	1.268555	0.238007	0.359214	2.319072	0.238007	0.249891	2.319072	0.196006	0.203035	1.944991	0.182006	0.124934	1.477438	0.168005	1.561769	10.789588	1.245859	0.000000	0.000000	28.177076	-10.468177	-3.746563	0.503272	-21.083295	33.210912	26.796580	80.537532	-3.931322	-0.066336	17.428383	-8.314301	113.929904	19.257623	40.899452	-2.192386	-7.134949
4.700000	4.626123	-9.750884	95.836870	0.154123	0.966687	0.312611	-1.203338	1.659049	5.637488	1.397856	0.024397	19.720610	-6.438280	0.000000	1.377453	-4.884579	-5.375451	2.389228	0.041700	24.581461	13.487963	0.000000	0.217071	0.943303	0.178106	0.403123	1.254593	0.189238	0.356626	2.293547	0.189238	0.248091	2.293547	0.155843	0.201572	1.923583	0.144711	0.124035	1.461176	0.133580	1.550519	10.670831	0.990574	0.000000	0.000000	28.163178	-10.370422	-3.833761	0.725969	-21.075381	33.835430	26.637756	80.729658	-4.096618	-0.208496	17.374208	-8.392234	114.144910	19.208254	40.702143	-2.272732	-7.177486
4.716667	4.569881	-9.691300	95.849488	0.154403	0.966645	0.312745	-1.292476	1.635072	6.071362	1.384392	0.024162	19.459428	-7.187787	0.000000	1.264883	-4.864118	-5.010728	2.265455	0.039540	24.429278	13.131239	0.000000	0.213816	0.929841	0.132013	0.397077	1.236688	0.140264	0.351278	2.260815	0.140264	0.244370	2.260815	0.115512	0.198549	1.896132	0.107261	0.122174	1.440324	0.099010	1.527263	10.518546	0.734219	0.000000	0.000000	28.147677	-10.315582	-3.992797	1.027243	-21.062355	34.575092	26.448409	80.914514	-4.214455	-0.286042	17.329340	-8.467548	114.554163	19.146798	40.233101	-2.332627	-7.289649
4.733333	4.492952	-9.647745	95.761876	0.154772	0.966605	0.312928	-1.337865	1.578075	6.467400	1.410778	0.024623	19.274675	-7.720384	0.000000	1.141165	-4.819578	-4.662518	2.118356	0.036972	24.230280	12.661248	0.000000	0.210125	0.915377	0.096670	0.390224	1.217452	0.102711	0.345215	2.225648	0.102711	0.240152	2.225648	0.084586	0.195122	1.866637	0.078544	0.120066	1.417919	0.072502	1.500905	10.354929	0.537647	0.000000	0.000000	28.133874	-10.230290	-4.084100	1.370128	-21.043347	35.294671	26.255548	81.272190	-4.283563	-0.268924	17.267900	-8.526047	115.052388	19.044679	39.488986	-2.299398	-7.426455
4.750000	4.404339	-9.619722	95.658867	0.155142	0.966570	0.313160	-1.343020	1.494202	6.526556	1.480414	0.025838	19.231274	-7.727886	0.000000	1.027733	-4.761481	-4.318102	1.963077	0.034262	23.999868	12.178282	0.000000	0.207050	0.900211	0.057388	0.384512	1.197281	0.060974	0.340162	2.188773	0.060974	0.236637	2.188773	0.050214	0.192266	1.835711	0.046628	0.118308	1.394427	0.043041	1.478935	10.183369	0.319173	0.000000	0.000000	28.121453	-10.130770	-4.155546	1.796680	-21.049733	36.309574	26.022689	81.489929	-4.357048	-0.258382	17.184380	-8.577061	115.542442	18.904582	38.672399	-2.217524	-7.598146
4.766667	4.317527	-9.606316	95.490852	0.155537	0.966524	0.313388	-1.324952	1.404020	6.658510	1.548565	0.027028	19.209462	-7.723193	0.000000	0.912726	-4.703559	-4.051543	1.802727	0.031464	23.759797	11.713128	0.000000	0.205207	0.887194	0.035527	0.381089	1.179968	0.037748	0.337134	2.157124	0.037748	0.234531	2.157124	0.031086	0.190555	1.809166	0.028866	0.117255	1.374264	0.026646	1.465770	10.036117	0.197593	0.000000	0.000000	28.113093	-10.027654	-4.165001	2.133425	-21.059603	37.013908	25.873689	81.853678	-4.382511	-0.131874	17.101565	-8.605413	116.006747	18.775247	37.774466	-2.119247	-7.756655
4.783333	4.234073	-9.607487	95.285923	0.155954	0.966488	0.313630	-1.281821	1.311464	6.842963	1.613249	0.028157	19.211348	-7.706222	0.000000	0.802689	-4.645297	-3.811208	1.637717	0.028584	23.503102	11.214277	0.000000	0.204887	0.875282	0.024872	0.380496	1.164125	0.026427	0.336609	2.128160	0.026427	0.234165	2.128160	0.021763	0.190258	1.784875	0.020209	0.117072	1.355812	0.018654	1.463488	9.901363	0.138331	0.000000	0.000000	28.105398	-9.938366	-4.165363	2.440149	-21.071046	37.605169	25.740936	82.287625	-4.317750	0.116931	17.027672	-8.604674	116.480395	18.627996	36.854155	-2.022649	-7.852368
4.800000	4.163455	-9.612403	95.038685	0.156359	0.966470	0.313864	-1.217803	1.222789	6.877086	1.686017	0.029427	19.293433	-7.389982	0.000000	0.680379	-4.592214	-3.549379	1.458551	0.025457	23.227035	10.613244	0.000000	0.204727	0.865855	0.032858	0.380199	1.151588	0.034911	0.336347	2.105241	0.034911	0.233983	2.105241	0.028751	0.190110	1.765653	0.026697	0.116981	1.341210	0.024643	1.462347	9.794730	0.182745	0.000000	0.000000	28.100152	-9.878595	-4.175150	2.678919	-21.133585	38.155043	25.675307	82.614183	-4.224712	0.389161	16.984862	-8.588733	116.894210	18.525326	35.963898	-1.936609	-7.896799
4.816667	4.108070	-9.622531	94.787363	0.156756	0.966473	0.314073	-1.153816	1.152647	7.151869	1.721971	0.030054	19.314892	-7.381781	0.000000	0.570250	-4.553987	-3.348985	1.303625	0.022753	22.968497	10.063406	0.000000	0.205507	0.858151	0.055891	0.381647	1.141341	0.059384	0.337628	2.086509	0.059384	0.234874	2.086509	0.048905	0.190834	1.749942	0.045411	0.117427	1.329276	0.041918	1.467916	9.707579	0.310849	0.000000	0.000000	28.094675	-9.829501	-4.170429	2.808610	-21.202613	38.487905	25.672782	82.961142	-4.184803	0.652963	16.995220	-8.547368	117.409138	18.441346	35.022314	-1.862997	-7.956914
4.833333	4.073950	-9.641121	94.566215	0.157096	0.966506	0.314265	-1.065940	1.100608	7.144425	1.769748	0.030888	19.443624	-6.980153	0.000000	0.482355	-4.533512	-3.149571	1.169157	0.020406	22.718320	9.527228	0.000000	0.207151	0.852845	0.083184	0.384701	1.134284	0.088383	0.340329	2.073607	0.088383	0.236753	2.073607	0.072786	0.192361	1.739121	0.067587	0.118366	1.321057	0.062388	1.479661	9.647552	0.462644	0.000000	0.000000	28.086113	-9.730868	-4.050624	2.864543	-21.296896	38.748553	25.726128	83.242225	-4.239578	0.860394	17.022836	-8.503151	117.787689	18.378336	34.164400	-1.774100	-8.038689
4.850000	4.064532	-9.659356	94.364677	0.157402	0.966557	0.314414	-0.983330	1.079623	7.257190	1.791069	0.031260	19.525324	-6.767514	0.000000	0.410851	-4.537000	-3.017244	1.069838	0.018672	22.508451	9.076208	0.000000	0.207996	0.850145	0.120028	0.386269	1.130693	0.127530	0.341717	2.067042	0.127530	0.237719	2.067042	0.105025	0.193145	1.733615	0.097523	0.118849	1.316874	0.090021	1.485695	9.617008	0.667562	0.000000	0.000000	28.071570	-9.584417	-3.816825	2.781798	-21.386404	38.662582	25.894975	83.575562	-4.327039	1.057626	17.084029	-8.458421	118.088488	18.357899	33.281599	-1.664572	-8.150918
